<svg xmlns="http://www.w3.org/2000/svg" xmlns:xlink="http://www.w3.org/1999/xlink" width="162px" height="162px" viewBox="0 0 162 162" version="1.1">
<g id="surface1">
<rect x="0" y="0" width="162" height="162" style="fill:rgb(100%,100%,100%);fill-opacity:1;stroke:none;"/>
<path style=" stroke:none;fill-rule:evenodd;fill:rgb(14.117647%,51.372549%,35.294118%);fill-opacity:1;" d="M 29.679688 69.453125 L 29.679688 95.851562 L 37.472656 95.863281 L 37.472656 65.429688 L 26.078125 65.429688 C 23.207031 65.429688 22.128906 67.167969 22.128906 67.167969 L 2.382812 95.8125 L 11.324219 95.8125 Z M 29.679688 69.453125 "/>
<path style=" stroke:none;fill-rule:evenodd;fill:rgb(80%,12.941176%,19.215686%);fill-opacity:1;" d="M 14.8125 95.828125 L 27.117188 95.828125 L 27.117188 77.941406 L 14.707031 95.828125 Z M 14.8125 95.828125 "/>
<path style=" stroke:none;fill-rule:evenodd;fill:rgb(14.117647%,51.372549%,35.294118%);fill-opacity:1;" d="M 42.429688 95.914062 L 42.429688 66.679688 L 49.980469 66.679688 L 49.980469 95.914062 Z M 54.902344 95.914062 L 54.902344 73.886719 L 62.453125 73.886719 L 62.453125 95.914062 Z M 54.902344 72.015625 L 54.902344 66.679688 L 62.453125 66.679688 L 62.453125 72.015625 Z M 112.410156 95.777344 L 112.410156 66.542969 L 119.957031 66.542969 L 119.957031 95.777344 Z M 124.878906 95.777344 L 124.878906 73.746094 L 132.429688 73.746094 L 132.429688 95.777344 Z M 124.878906 71.875 L 124.878906 66.542969 L 132.429688 66.542969 L 132.429688 71.875 Z M 67.722656 69.242188 L 74.855469 69.242188 L 74.855469 73.675781 L 82.683594 73.675781 L 82.683594 79.496094 L 75.132812 79.496094 L 75.132812 87.949219 C 75.132812 87.949219 75.0625 89.957031 77.457031 89.957031 L 82.929688 89.957031 L 82.929688 95.851562 L 73.851562 95.851562 C 73.851562 95.851562 67.722656 96.230469 67.722656 90.339844 Z M 103.054688 73.609375 C 103.054688 73.609375 97.304688 72.121094 91.414062 73.644531 C 91.414062 73.644531 85.214844 74.609375 85.597656 80.535156 L 93.179688 80.535156 C 93.179688 80.535156 93.144531 77.453125 96.925781 77.488281 C 96.925781 77.488281 100.246094 77.246094 100.527344 79.5 C 100.527344 79.5 101.007812 80.78125 98.933594 81.472656 L 88.921875 83.34375 C 88.921875 83.34375 84.378906 84.179688 84.378906 89.371094 C 84.378906 89.371094 84.242188 92.796875 86.53125 94.640625 C 86.53125 94.640625 89.09375 96.511719 94.082031 96.511719 C 94.082031 96.511719 103.332031 96.816406 108.320312 96.058594 L 108.320312 80.054688 C 108.320312 80.054688 108.804688 74.683594 103.054688 73.609375 Z M 100.59375 91.65625 C 100.59375 91.65625 95.984375 92.105469 93.90625 91.414062 C 93.90625 91.414062 92.316406 90.929688 92.316406 88.917969 C 92.316406 88.917969 92.316406 87.1875 94.082031 86.667969 L 100.59375 85.3125 Z M 154.339844 73.609375 C 154.347656 73.609375 148.59375 72.121094 142.703125 73.644531 C 142.703125 73.644531 136.5 74.609375 136.882812 80.535156 L 144.46875 80.535156 C 144.46875 80.535156 144.4375 77.453125 148.210938 77.488281 C 148.210938 77.488281 151.535156 77.246094 151.8125 79.5 C 151.8125 79.5 152.296875 80.78125 150.21875 81.472656 L 140.207031 83.34375 C 140.207031 83.34375 135.667969 84.179688 135.667969 89.371094 C 135.667969 89.371094 135.53125 92.796875 137.816406 94.640625 C 137.816406 94.640625 140.382812 96.511719 145.367188 96.511719 C 145.367188 96.511719 154.621094 96.816406 159.609375 96.058594 L 159.609375 80.054688 C 159.609375 80.054688 160.09375 74.683594 154.339844 73.609375 Z M 151.882812 91.65625 C 151.882812 91.65625 147.277344 92.105469 145.195312 91.414062 C 145.195312 91.414062 143.601562 90.929688 143.601562 88.917969 C 143.601562 88.917969 143.601562 87.1875 145.367188 86.667969 L 151.882812 85.3125 Z M 151.882812 91.65625 "/>
</g>
</svg>
