<svg xmlns="http://www.w3.org/2000/svg" xmlns:xlink="http://www.w3.org/1999/xlink" width="162px" height="162px" viewBox="0 0 162 162" version="1.1">
<g id="surface1">
<rect x="0" y="0" width="162" height="162" style="fill:rgb(100%,100%,100%);fill-opacity:1;stroke:none;"/>
<path style=" stroke:none;fill-rule:evenodd;fill:rgb(57.647059%,55.294118%,37.254902%);fill-opacity:1;" d="M 25.601562 59.144531 C 25.601562 59.144531 46.894531 74.808594 49.144531 76.308594 C 51.394531 77.90625 46.332031 74.246094 46.332031 74.246094 C 46.332031 74.246094 54.210938 78.65625 51.957031 84.660156 C 50.175781 89.535156 42.578125 91.410156 42.578125 91.410156 C 42.578125 91.410156 47.175781 92.066406 52.613281 90.472656 C 52.613281 90.472656 56.273438 89.253906 57.867188 88.035156 C 59.460938 86.910156 60.023438 86.066406 60.023438 86.066406 C 60.023438 86.066406 64.242188 89.066406 65.464844 89.726562 C 66.777344 90.382812 80.191406 96.195312 80.847656 96.476562 C 81.597656 96.757812 97.917969 103.792969 97.917969 103.792969 C 97.917969 103.792969 74.28125 86.628906 72.96875 85.503906 C 71.65625 84.378906 67.246094 81.09375 69.871094 75.652344 C 69.871094 75.652344 71.65625 72.652344 75.6875 71.246094 L 76.8125 70.964844 C 76.8125 70.964844 72.59375 70.121094 67.433594 72.277344 C 62.648438 74.246094 61.992188 75.464844 61.992188 75.464844 C 61.992188 75.464844 58.710938 72.839844 56.929688 71.996094 C 55.050781 71.152344 41.359375 65.523438 40.234375 64.960938 C 39.109375 64.492188 25.601562 59.144531 25.601562 59.144531 Z M 25.601562 59.144531 "/>
<path style=" stroke:none;fill-rule:evenodd;fill:rgb(17.254902%,18.039216%,19.607843%);fill-opacity:1;" d="M 25.882812 58.207031 C 25.882812 58.207031 47.082031 73.871094 49.332031 75.371094 C 51.675781 76.964844 46.613281 73.308594 46.613281 73.308594 C 46.613281 73.308594 54.398438 77.71875 52.238281 83.71875 C 50.363281 88.597656 42.859375 90.472656 42.859375 90.472656 C 42.859375 90.472656 47.363281 91.128906 52.894531 89.535156 C 52.894531 89.535156 56.554688 88.316406 58.148438 87.097656 C 59.648438 85.972656 60.304688 85.128906 60.304688 85.128906 C 60.304688 85.128906 64.433594 88.128906 65.746094 88.785156 C 66.964844 89.441406 80.378906 95.257812 81.128906 95.539062 L 98.105469 102.855469 C 98.105469 102.855469 74.46875 85.691406 73.15625 84.5625 C 71.84375 83.4375 67.527344 80.15625 70.0625 74.714844 C 70.0625 74.714844 71.9375 71.714844 75.96875 70.308594 L 77 70.027344 C 77 70.027344 72.875 69.183594 67.714844 71.339844 C 62.839844 73.308594 62.277344 74.527344 62.277344 74.527344 C 62.277344 74.527344 58.898438 71.902344 57.117188 71.058594 C 55.335938 70.214844 41.546875 64.585938 40.421875 64.023438 C 39.296875 63.554688 25.882812 58.207031 25.882812 58.207031 Z M 25.882812 58.207031 "/>
<path style=" stroke:none;fill-rule:evenodd;fill:rgb(57.647059%,55.294118%,37.254902%);fill-opacity:1;" d="M 131.214844 73.683594 L 131.214844 71.058594 L 120.335938 71.058594 L 120.335938 89.253906 L 131.214844 89.253906 L 131.214844 77.71875 C 131.214844 77.71875 133.75 74.808594 137.59375 74.621094 C 141.347656 74.339844 143.316406 75.558594 143.597656 77.4375 C 143.972656 79.3125 143.597656 89.253906 143.597656 89.253906 L 154.476562 89.253906 L 154.476562 77.4375 C 154.476562 77.4375 154.476562 72.089844 146.507812 71.246094 C 138.816406 70.308594 136.46875 71.339844 136.1875 71.433594 C 135.90625 71.527344 131.214844 73.683594 131.214844 73.683594 Z M 39.484375 85.691406 C 38.640625 85.691406 37.230469 86.160156 37.699219 82.125 C 37.699219 82.125 37.699219 76.964844 37.605469 75.933594 C 37.511719 74.902344 37.699219 72.746094 31.792969 71.433594 C 25.976562 70.121094 21.007812 70.683594 19.785156 70.777344 C 18.660156 70.964844 14.347656 71.433594 13.03125 71.808594 C 11.71875 72.089844 8.90625 72.933594 8.90625 72.933594 L 8.90625 77.4375 C 8.90625 77.4375 14.34375 75.183594 18.378906 74.808594 C 24.382812 74.058594 26.445312 75.84375 26.445312 75.84375 C 26.445312 75.84375 27.382812 77.0625 26.632812 77.53125 C 25.882812 78.09375 21.195312 78.28125 15.660156 79.5 C 10.125 80.71875 6.28125 82.125 7.3125 85.785156 C 7.3125 85.785156 8.34375 89.910156 16.878906 89.628906 C 25.320312 89.441406 27.382812 87.566406 27.382812 87.566406 C 27.382812 87.566406 28.882812 90.003906 34.042969 89.722656 C 39.105469 89.347656 43.421875 87.941406 43.421875 87.941406 L 43.421875 84.660156 C 43.421875 84.65625 40.328125 85.691406 39.484375 85.691406 Z M 27.289062 85.40625 C 27.289062 85.40625 25.039062 86.441406 22.789062 86.628906 C 20.632812 86.816406 19.410156 86.347656 18.753906 85.785156 C 18.003906 85.21875 17.910156 83.8125 19.972656 82.96875 C 22.039062 82.21875 23.351562 81.9375 24.757812 81.65625 C 26.164062 81.375 27.289062 81.28125 27.289062 81.28125 Z M 97.355469 70.777344 C 97.355469 70.777344 79.722656 70.214844 78.597656 79.59375 C 77.472656 89.253906 97.355469 89.722656 97.355469 89.722656 C 97.355469 89.722656 115.738281 89.816406 115.457031 79.96875 C 115.273438 70.683594 97.355469 70.777344 97.355469 70.777344 Z M 96.980469 86.160156 C 96.980469 86.160156 89.195312 86.253906 89.757812 79.875 C 90.226562 73.496094 97.261719 74.152344 97.261719 74.152344 C 97.261719 74.152344 104.390625 73.496094 104.296875 80.15625 C 104.296875 86.816406 96.980469 86.160156 96.980469 86.160156 Z M 96.980469 86.160156 "/>
<path style=" stroke:none;fill-rule:evenodd;fill:rgb(17.254902%,18.039216%,19.607843%);fill-opacity:1;" d="M 104.203125 97.976562 C 103.921875 98.164062 103.640625 98.257812 103.453125 98.257812 C 103.265625 98.257812 103.171875 98.164062 103.171875 97.976562 L 103.171875 95.445312 C 103.171875 94.320312 101.953125 93.851562 100.449219 93.851562 C 99.324219 93.851562 98.480469 94.039062 97.917969 94.507812 L 97.917969 95.539062 C 98.574219 94.976562 99.417969 94.789062 100.261719 94.789062 C 101.199219 94.789062 101.667969 94.976562 101.667969 95.632812 L 101.667969 95.914062 L 100.355469 96.195312 C 99.136719 96.476562 97.730469 96.757812 97.730469 97.789062 C 97.730469 98.351562 98.480469 98.914062 99.605469 98.914062 C 100.261719 98.914062 101.011719 98.820312 101.667969 98.445312 C 101.761719 98.820312 102.140625 98.914062 102.796875 98.914062 C 103.265625 98.914062 103.546875 98.914062 104.203125 98.539062 Z M 101.671875 97.882812 C 101.296875 98.070312 100.828125 98.257812 100.359375 98.257812 C 99.703125 98.257812 99.230469 97.976562 99.230469 97.601562 C 99.230469 97.039062 100.359375 96.664062 101.671875 96.382812 Z M 108.515625 93.945312 L 107.015625 93.945312 L 107.015625 98.820312 L 108.515625 98.820312 Z M 108.707031 92.445312 C 108.707031 92.160156 108.332031 91.878906 107.859375 91.878906 C 107.300781 91.878906 106.921875 92.160156 106.921875 92.445312 C 106.921875 92.722656 107.300781 93.007812 107.859375 93.007812 C 108.328125 93.007812 108.707031 92.722656 108.707031 92.445312 Z M 112.269531 93.945312 L 112.269531 98.820312 L 113.769531 98.820312 L 113.769531 96.289062 C 113.769531 95.445312 114.613281 94.789062 115.644531 94.789062 C 116.019531 94.789062 116.585938 94.976562 117.050781 95.257812 L 117.804688 94.414062 C 117.148438 94.039062 116.585938 93.851562 116.023438 93.851562 C 115.273438 93.851562 114.613281 94.222656 113.769531 95.070312 L 113.769531 93.945312 Z M 121.835938 91.410156 L 120.335938 91.410156 L 120.335938 98.820312 L 121.835938 98.820312 Z M 126.996094 93.945312 L 125.496094 93.945312 L 125.496094 98.820312 L 126.996094 98.820312 Z M 127.183594 92.445312 C 127.183594 92.160156 126.714844 91.878906 126.246094 91.878906 C 125.777344 91.878906 125.402344 92.160156 125.402344 92.445312 C 125.402344 92.722656 125.773438 93.007812 126.246094 93.007812 C 126.714844 93.007812 127.183594 92.722656 127.183594 92.445312 Z M 132.0625 93.945312 L 130.558594 93.945312 L 130.558594 98.820312 L 132.0625 98.820312 L 132.0625 95.351562 C 132.8125 94.789062 133.28125 94.601562 133.9375 94.601562 C 134.875 94.601562 135.4375 95.070312 135.4375 95.820312 L 135.4375 98.820312 L 136.9375 98.820312 L 136.9375 95.820312 C 136.9375 94.507812 135.8125 93.847656 134.402344 93.847656 C 133.558594 93.847656 132.714844 94.128906 132.152344 94.601562 L 132.058594 94.601562 L 132.058594 93.945312 Z M 146.878906 97.414062 C 145.945312 97.789062 145.097656 98.070312 144.160156 98.070312 C 142.753906 98.070312 141.910156 97.507812 141.628906 96.570312 L 146.972656 96.570312 C 146.972656 94.695312 145.660156 93.851562 143.691406 93.851562 C 141.628906 93.851562 140.128906 94.882812 140.128906 96.382812 C 140.128906 97.695312 141.441406 98.917969 143.785156 98.917969 C 145.097656 98.917969 145.945312 98.726562 146.882812 98.351562 L 146.882812 97.414062 Z M 141.722656 95.914062 C 141.910156 95.164062 142.566406 94.695312 143.691406 94.695312 C 144.816406 94.695312 145.472656 95.164062 145.472656 95.914062 Z M 154.476562 94.222656 C 153.632812 93.945312 152.976562 93.851562 152.226562 93.851562 C 150.726562 93.851562 149.695312 94.320312 149.695312 95.164062 C 149.695312 96.476562 153.257812 96.851562 153.257812 97.507812 C 153.257812 97.882812 152.789062 98.070312 152.132812 98.070312 C 151.570312 98.070312 150.632812 97.882812 149.695312 97.414062 L 149.695312 98.539062 C 150.632812 98.820312 151.382812 98.914062 152.320312 98.914062 C 153.726562 98.914062 154.851562 98.351562 154.851562 97.507812 C 154.851562 96.945312 154.382812 96.664062 153.070312 96.101562 C 151.757812 95.535156 151.289062 95.351562 151.289062 95.164062 C 151.289062 94.878906 151.664062 94.691406 152.226562 94.691406 C 152.789062 94.691406 153.632812 94.878906 154.476562 95.164062 Z M 154.476562 94.222656 "/>
</g>
</svg>
