<svg xmlns="http://www.w3.org/2000/svg" xmlns:xlink="http://www.w3.org/1999/xlink" width="572px" height="162px" viewBox="0 0 572 162" version="1.1">
<g id="surface1">
<path style=" stroke:none;fill-rule:nonzero;fill:rgb(2.745098%,18.431373%,32.941176%);fill-opacity:1;" d="M 274.941406 126.722656 L 257.160156 126.722656 C 257.046875 126.722656 257.046875 126.722656 256.992188 126.667969 L 241.6875 107.984375 L 226.378906 126.667969 C 226.324219 126.722656 226.269531 126.722656 226.210938 126.722656 L 211.976562 126.722656 C 211.863281 126.722656 211.804688 126.667969 211.75 126.609375 C 211.75 126.554688 211.75 126.441406 211.804688 126.386719 L 234.371094 98.699219 L 212.085938 71.292969 C 212.03125 71.179688 212.03125 71.125 212.03125 71.011719 C 212.085938 70.953125 212.144531 70.898438 212.199219 70.898438 L 229.980469 70.898438 C 230.039062 70.898438 230.09375 70.953125 230.152344 71.011719 L 243.597656 87.667969 L 257.273438 71.011719 C 257.328125 70.953125 257.386719 70.898438 257.441406 70.898438 L 271.902344 70.898438 C 271.960938 70.898438 272.074219 70.953125 272.128906 71.011719 C 272.183594 71.125 272.128906 71.179688 272.074219 71.292969 L 250.972656 96.671875 L 275.167969 126.386719 C 275.222656 126.441406 275.222656 126.554688 275.222656 126.609375 C 275.113281 126.722656 275.054688 126.722656 274.941406 126.722656 "/>
<path style=" stroke:none;fill-rule:nonzero;fill:rgb(2.745098%,18.431373%,32.941176%);fill-opacity:1;" d="M 371.109375 80.691406 C 363.234375 80.691406 357.886719 85.472656 356.3125 93.746094 L 383.097656 93.746094 L 383.097656 93.183594 C 383.097656 86.597656 378.199219 80.691406 371.109375 80.691406 M 396.882812 102.300781 C 396.828125 102.355469 396.769531 102.414062 396.714844 102.414062 L 356.03125 102.414062 C 356.875 111.867188 363.007812 117.269531 372.96875 117.269531 C 379.101562 117.269531 385.628906 115.1875 394.800781 110.292969 C 394.96875 110.179688 395.136719 110.347656 395.136719 110.515625 L 395.136719 123.007812 C 395.136719 123.121094 395.082031 123.179688 395.027344 123.179688 C 386.472656 126.78125 377.863281 129.253906 371.109375 129.253906 C 353.609375 129.253906 340.894531 116.480469 340.894531 98.921875 C 340.894531 81.367188 353.609375 68.589844 371.109375 68.589844 C 387.089844 68.589844 397.332031 79.339844 397.332031 94.140625 C 397.332031 96.558594 396.9375 102.132812 396.882812 102.300781 "/>
<path style=" stroke:none;fill-rule:nonzero;fill:rgb(2.745098%,18.431373%,32.941176%);fill-opacity:1;" d="M 479.488281 59.304688 C 474.480469 59.304688 470.429688 55.308594 470.429688 50.414062 C 470.429688 45.351562 474.480469 41.242188 479.488281 41.242188 C 484.496094 41.242188 488.550781 45.351562 488.550781 50.414062 C 488.550781 55.308594 484.496094 59.304688 479.488281 59.304688 M 472.175781 126.722656 C 472.003906 126.722656 471.949219 126.667969 471.949219 126.5 L 471.949219 71.066406 C 471.949219 70.953125 472.003906 70.84375 472.117188 70.84375 L 486.804688 70.84375 C 486.917969 70.84375 486.972656 70.953125 486.972656 71.066406 L 486.972656 126.5 C 486.972656 126.667969 486.859375 126.722656 486.75 126.722656 Z M 472.175781 126.722656 "/>
<path style=" stroke:none;fill-rule:nonzero;fill:rgb(2.745098%,18.431373%,32.941176%);fill-opacity:1;" d="M 301.839844 118.394531 C 299.195312 118.394531 296.496094 118 293.34375 117.210938 L 293.398438 81.648438 C 297.058594 80.464844 300.207031 79.957031 303.359375 79.957031 C 313.542969 79.957031 320.355469 87.445312 320.355469 98.640625 C 320.355469 110.628906 313.09375 118.394531 301.839844 118.394531 M 305.835938 68.589844 C 301.671875 68.589844 297.507812 69.324219 293.117188 70.84375 L 278.488281 70.84375 C 278.375 70.84375 278.261719 70.953125 278.261719 71.066406 L 278.261719 161.953125 C 282.652344 161.332031 288.054688 159.757812 293.34375 156.042969 L 293.34375 128.410156 C 296.945312 128.917969 299.925781 129.253906 302.796875 129.253906 C 322.828125 129.253906 335.773438 117.269531 335.773438 98.699219 C 335.773438 80.972656 323.449219 68.589844 305.835938 68.589844 "/>
<path style=" stroke:none;fill-rule:nonzero;fill:rgb(2.745098%,18.431373%,32.941176%);fill-opacity:1;" d="M 445.445312 113.78125 C 440.886719 116.199219 436.78125 117.324219 432.953125 117.324219 C 423.894531 117.324219 418.433594 110.910156 418.433594 100.160156 C 418.433594 87.78125 425.355469 79.734375 436.105469 79.734375 C 439.085938 79.734375 441.957031 80.464844 445.445312 82.042969 Z M 445.445312 41.523438 L 445.445312 70.503906 C 441.167969 69.265625 437.398438 68.703125 433.570312 68.703125 C 416.128906 68.703125 403.015625 81.816406 403.015625 99.261719 C 403.015625 116.59375 414.609375 129.199219 430.589844 129.199219 C 436.105469 129.199219 441.28125 127.792969 447.359375 124.699219 L 447.359375 129.707031 C 451.355469 128.917969 455.96875 127.34375 460.527344 124.078125 L 460.527344 35.558594 C 456.082031 36.175781 450.792969 37.695312 445.445312 41.523438 "/>
<path style=" stroke:none;fill-rule:nonzero;fill:rgb(2.745098%,18.431373%,32.941176%);fill-opacity:1;" d="M 537.898438 113.667969 C 533.453125 116.199219 529.683594 117.4375 526.308594 117.4375 C 516.574219 117.4375 510.777344 111.023438 510.777344 100.273438 C 510.777344 88.0625 517.640625 79.847656 527.828125 79.847656 C 530.527344 79.847656 533.847656 80.914062 537.898438 83.054688 Z M 552.980469 70.167969 C 552.980469 69.828125 552.699219 69.546875 552.359375 69.546875 L 540.488281 69.546875 C 540.148438 69.546875 539.8125 69.828125 539.8125 70.167969 L 539.8125 72.191406 L 539.53125 72.191406 C 534.074219 69.773438 529.347656 68.703125 524.789062 68.703125 C 508.355469 68.703125 495.472656 82.324219 495.472656 99.769531 C 495.472656 117.382812 507.007812 129.199219 524.167969 129.199219 C 528.726562 129.199219 534.636719 128.863281 540.148438 122.558594 L 540.148438 129.707031 C 544.03125 128.863281 548.648438 127.230469 552.980469 124.078125 Z M 552.980469 70.167969 "/>
<path style=" stroke:none;fill-rule:nonzero;fill:rgb(2.745098%,18.431373%,32.941176%);fill-opacity:1;" d="M 171.347656 112.878906 L 208.203125 112.878906 C 207.640625 116.988281 206.234375 121.828125 203.082031 126.722656 L 164.761719 126.722656 C 160.09375 126.722656 156.210938 123.066406 155.757812 118.507812 C 155.757812 118.449219 155.703125 118.394531 155.703125 118.28125 L 155.703125 45.574219 C 155.703125 45.519531 155.757812 45.460938 155.757812 45.40625 C 156.210938 40.792969 160.09375 37.132812 164.761719 37.132812 L 208.148438 37.132812 C 207.585938 41.242188 206.179688 46.195312 202.972656 51.089844 L 171.347656 51.089844 L 171.347656 70.898438 L 202.691406 70.898438 C 202.800781 70.898438 202.914062 71.011719 202.914062 71.125 L 202.914062 84.855469 C 202.914062 84.96875 202.800781 85.078125 202.691406 85.078125 L 171.347656 85.078125 Z M 171.347656 112.878906 "/>
<path style=" stroke:none;fill-rule:nonzero;fill:rgb(2.745098%,18.431373%,32.941176%);fill-opacity:1;" d="M 125.203125 127.90625 C 121.546875 127.90625 119.296875 125.035156 119.296875 121.546875 C 119.296875 117.832031 121.882812 115.1875 125.203125 115.1875 C 128.46875 115.1875 131.054688 117.777344 131.054688 121.546875 C 131.054688 125.316406 128.46875 127.90625 125.203125 127.90625 M 125.203125 114.511719 C 121.488281 114.511719 118.28125 117.324219 118.28125 121.546875 C 118.28125 125.542969 121.152344 128.582031 125.203125 128.582031 C 128.863281 128.582031 132.070312 125.765625 132.070312 121.546875 C 132.070312 117.324219 128.917969 114.511719 125.203125 114.511719 "/>
<path style=" stroke:none;fill-rule:nonzero;fill:rgb(2.745098%,18.431373%,32.941176%);fill-opacity:1;" d="M 123.570312 120.984375 L 123.570312 118.394531 L 125.316406 118.394531 C 126.21875 118.394531 127.230469 118.507812 127.230469 119.578125 C 127.230469 120.871094 126.273438 120.925781 125.203125 120.925781 C 125.148438 120.984375 123.570312 120.984375 123.570312 120.984375 Z M 128.46875 119.746094 C 128.46875 118.058594 127.453125 117.324219 125.429688 117.324219 L 122.277344 117.324219 L 122.277344 125.652344 L 123.628906 125.652344 L 123.628906 122.109375 L 124.921875 122.109375 L 127.0625 125.652344 L 128.636719 125.652344 L 126.328125 121.996094 C 127.566406 121.882812 128.46875 121.265625 128.46875 119.746094 "/>
<path style=" stroke:none;fill-rule:nonzero;fill:rgb(2.745098%,18.431373%,32.941176%);fill-opacity:1;" d="M 565.136719 80.070312 C 561.476562 80.070312 559.226562 77.203125 559.226562 73.710938 C 559.226562 70 561.816406 67.351562 565.136719 67.351562 C 568.398438 67.351562 570.988281 69.941406 570.988281 73.710938 C 570.988281 77.484375 568.398438 80.070312 565.136719 80.070312 M 565.136719 66.734375 C 561.421875 66.734375 558.214844 69.546875 558.214844 73.769531 C 558.214844 77.765625 561.082031 80.804688 565.136719 80.804688 C 568.792969 80.804688 572 77.988281 572 73.769531 C 572 69.492188 568.792969 66.734375 565.136719 66.734375 "/>
<path style=" stroke:none;fill-rule:nonzero;fill:rgb(2.745098%,18.431373%,32.941176%);fill-opacity:1;" d="M 563.445312 73.148438 L 563.445312 70.617188 L 565.191406 70.617188 C 566.089844 70.617188 567.105469 70.730469 567.105469 71.800781 C 567.105469 73.09375 566.148438 73.148438 565.078125 73.148438 Z M 568.398438 71.96875 C 568.398438 70.28125 567.386719 69.546875 565.359375 69.546875 L 562.207031 69.546875 L 562.207031 77.875 L 563.558594 77.875 L 563.558594 74.332031 L 564.855469 74.332031 L 566.992188 77.875 L 568.566406 77.875 L 566.261719 74.21875 C 567.441406 74.105469 568.398438 73.488281 568.398438 71.96875 "/>
<path style=" stroke:none;fill-rule:nonzero;fill:rgb(2.745098%,18.431373%,32.941176%);fill-opacity:1;" d="M 77.65625 51.035156 L 75.011719 43.492188 L 52.277344 13.160156 L 56.328125 12.148438 L 95.4375 45.96875 L 118.453125 39.382812 C 121.152344 38.710938 124.246094 38.539062 126.554688 38.539062 C 119.351562 22.953125 106.070312 10.121094 88.628906 3.929688 C 54.132812 -8.394531 16.148438 9.671875 3.882812 44.222656 C 0.0546875 54.917969 -0.789062 65.945312 0.789062 76.414062 L 55.878906 57.28125 Z M 77.65625 51.035156 "/>
<path style=" stroke:none;fill-rule:nonzero;fill:rgb(2.745098%,18.431373%,32.941176%);fill-opacity:1;" d="M 129.03125 44.503906 C 127.003906 45.800781 124.023438 47.542969 121.097656 48.5 L 98.023438 55.085938 L 82.664062 104.496094 L 78.667969 105.789062 L 81.929688 68.085938 L 80.128906 60.261719 L 58.523438 66.453125 L 1.351562 79.789062 C 5.910156 101.738281 21.4375 120.925781 44.117188 128.972656 C 78.667969 141.296875 116.59375 123.234375 128.917969 88.679688 C 134.207031 73.882812 133.871094 58.347656 129.03125 44.503906 "/>
<path style=" stroke:none;fill-rule:nonzero;fill:rgb(98.431373%,75.686275%,3.137255%);fill-opacity:1;" d="M 80.074219 60.207031 L 81.875 68.027344 L 78.609375 105.734375 L 82.605469 104.4375 L 97.96875 55.027344 L 121.039062 48.445312 C 123.964844 47.488281 126.949219 45.800781 128.972656 44.449219 C 128.242188 42.421875 127.453125 40.453125 126.554688 38.484375 C 124.191406 38.484375 121.152344 38.597656 118.453125 39.328125 L 95.4375 45.914062 L 56.328125 12.089844 L 52.277344 13.105469 L 74.953125 43.4375 L 77.597656 50.976562 L 55.820312 57.222656 L 0.730469 76.355469 C 0.898438 77.484375 1.125 78.664062 1.351562 79.789062 L 58.464844 66.339844 Z M 80.074219 60.207031 "/>
</g>
</svg>
