<svg xmlns="http://www.w3.org/2000/svg" xmlns:xlink="http://www.w3.org/1999/xlink" width="581px" height="162px" viewBox="0 0 581 162" version="1.1">
<g id="surface1">
<path style=" stroke:none;fill-rule:nonzero;fill:rgb(6.27451%,5.490196%,4.705882%);fill-opacity:1;" d="M 188.492188 79.457031 L 174.152344 79.457031 L 174.152344 110.324219 C 174.152344 115.921875 177.429688 117.148438 182.480469 117.148438 C 184.398438 117.148438 186.441406 116.875 188.492188 116.875 L 188.492188 133.957031 C 184.253906 134.09375 180.019531 134.636719 175.789062 134.636719 C 155.976562 134.636719 150.921875 128.902344 150.921875 109.636719 L 150.921875 79.457031 L 139.179688 79.457031 L 139.179688 63.863281 L 150.921875 63.863281 L 150.921875 41.59375 L 174.152344 41.59375 L 174.152344 63.863281 L 188.492188 63.863281 Z M 305.40625 79.457031 L 291.058594 79.457031 L 291.058594 110.324219 C 291.058594 115.921875 294.339844 117.148438 299.394531 117.148438 C 301.304688 117.148438 303.359375 116.875 305.40625 116.875 L 305.40625 133.957031 C 301.171875 134.09375 296.933594 134.636719 292.699219 134.636719 C 272.886719 134.636719 267.839844 128.902344 267.839844 109.636719 L 267.839844 79.457031 L 256.082031 79.457031 L 256.082031 63.863281 L 267.835938 63.863281 L 267.835938 41.59375 L 291.058594 41.59375 L 291.058594 63.863281 L 305.40625 63.863281 Z M 64.777344 104.457031 C 64.777344 125.1875 54.152344 135.671875 32.386719 135.671875 C 7.902344 135.671875 0 121.554688 0 100.953125 L 0 96.941406 L 22.671875 96.941406 L 22.671875 105.496094 C 22.671875 111.585938 26.039062 114.953125 31.996094 114.953125 C 37.570312 114.953125 40.675781 111.839844 40.675781 102.898438 L 40.675781 41.226562 L 64.777344 41.226562 Z M 118.898438 91.257812 C 118.492188 83.40625 112.941406 76.898438 105.21875 76.898438 C 97.085938 76.898438 91.675781 82.730469 90.320312 91.261719 Z M 90.320312 104.121094 C 90.726562 113.738281 96.277344 120.101562 106.027344 120.101562 C 111.582031 120.101562 117.003906 117.535156 119.175781 112.386719 L 140.699219 112.386719 C 136.503906 128.640625 121.472656 135.679688 105.757812 135.679688 C 82.878906 135.679688 67.292969 121.871094 67.292969 98.296875 C 67.292969 76.765625 84.5 61.320312 105.21875 61.320312 C 130.414062 61.320312 143 80.292969 141.925781 104.121094 Z M 211.128906 110.554688 C 211.128906 114.0625 212.609375 116.640625 214.910156 118.390625 C 217.070312 120.015625 220.183594 120.816406 223.425781 120.816406 C 227.882812 120.816406 234.230469 118.933594 234.230469 113.390625 C 234.230469 107.980469 227.070312 106.910156 223.015625 105.96875 C 208.558594 102.3125 190.457031 101.914062 190.457031 82.992188 C 190.457031 66.109375 208.710938 61.511719 222.476562 61.511719 C 237.875 61.511719 253.953125 65.972656 254.765625 84.210938 L 233.558594 84.210938 C 233.558594 81.242188 232.46875 79.34375 230.582031 78.128906 C 228.695312 76.914062 226.132812 76.371094 223.289062 76.371094 C 219.507812 76.371094 213.429688 76.78125 213.429688 81.648438 C 213.429688 88.265625 228.820312 89.472656 239.363281 91.777344 C 253.554688 94.613281 257.195312 104.875 257.195312 110.691406 C 257.195312 129.46875 239.363281 135.679688 223.558594 135.679688 C 206.941406 135.679688 189.917969 130.144531 189.246094 110.554688 Z M 339.253906 121.53125 C 350.167969 121.53125 353.804688 115.335938 353.261719 100.921875 C 350.027344 102.933594 344.09375 103.339844 339.109375 104.6875 C 333.988281 105.90625 329.683594 108.054688 329.683594 113.582031 C 329.683594 119.242188 334.132812 121.527344 339.253906 121.527344 M 309.609375 85.285156 C 310.015625 76.121094 314.320312 70.191406 320.519531 66.558594 C 326.71875 63.046875 334.796875 61.699219 342.75 61.699219 C 359.328125 61.699219 375.347656 65.335938 375.347656 85.152344 L 375.347656 115.75 C 375.347656 121.664062 375.347656 128.136719 378.054688 133.664062 L 355.011719 133.664062 C 354.207031 131.507812 353.925781 129.351562 353.664062 127.066406 C 347.734375 133.257812 338.976562 135.671875 330.621094 135.671875 C 317.285156 135.671875 306.785156 128.941406 306.785156 114.53125 C 306.785156 91.746094 331.570312 93.507812 347.472656 90.273438 C 351.375 89.460938 353.53125 88.113281 353.53125 83.804688 C 353.53125 78.542969 347.199219 76.519531 342.476562 76.519531 C 336.148438 76.519531 332.113281 79.351562 331.027344 85.285156 Z M 410.640625 65.90625 C 407.140625 68.203125 404.417969 71.554688 402.757812 75.917969 L 402.496094 75.917969 L 402.496094 63.621094 L 380.199219 63.621094 L 380.199219 133.738281 L 403.167969 133.738281 L 403.167969 99.027344 C 403.167969 90.25 409.097656 82.402344 420.453125 82.402344 C 423.089844 82.402344 425.445312 82.808594 427.90625 83.425781 Z M 410.640625 65.90625 "/>
<path style=" stroke:none;fill-rule:evenodd;fill:rgb(99.607843%,34.509804%,8.235294%);fill-opacity:1;" d="M 511.601562 1.210938 L 514.597656 49.289062 L 581 49.289062 L 517.398438 91.375 L 531.433594 160.789062 L 477.375 113.835938 L 404.597656 151.621094 L 448 92.132812 L 406.847656 49.289062 L 473.445312 49.289062 Z M 511.601562 1.210938 "/>
</g>
</svg>
