<svg xmlns="http://www.w3.org/2000/svg" xmlns:xlink="http://www.w3.org/1999/xlink" width="162px" height="162px" viewBox="0 0 162 162" version="1.1">
<g id="surface1">
<rect x="0" y="0" width="162" height="162" style="fill:rgb(100%,100%,100%);fill-opacity:1;stroke:none;"/>
<path style=" stroke:none;fill-rule:evenodd;fill:rgb(80%,12.941176%,19.607843%);fill-opacity:1;" d="M 32.609375 95.488281 L 2.382812 95.488281 L 2.382812 65.140625 Z M 32.609375 95.488281 "/>
<path style=" stroke:none;fill-rule:evenodd;fill:rgb(0%,0%,0%);fill-opacity:1;" d="M 121.726562 80.046875 L 101.988281 80.046875 L 100.007812 85.582031 L 106.167969 85.582031 L 102.714844 95.34375 L 110.179688 95.34375 L 113.628906 85.582031 L 119.746094 85.582031 Z M 93.8125 80.046875 L 93.789062 80.046875 L 91.390625 86.808594 L 88.988281 80.046875 L 80.785156 80.046875 L 75.359375 95.34375 L 81.964844 95.34375 L 84.589844 87.949219 L 87.214844 95.34375 L 94.96875 95.34375 L 100.398438 80.046875 Z M 67.554688 95.324219 L 74.660156 95.324219 L 74.453125 79.992188 L 62.460938 79.992188 L 51.535156 95.324219 L 59.039062 95.324219 L 60.738281 92.9375 L 67.523438 92.9375 Z M 63.929688 88.460938 L 67.398438 83.589844 L 67.464844 88.460938 Z M 130.265625 95.324219 L 137.367188 95.324219 L 137.164062 79.992188 L 125.171875 79.992188 L 114.246094 95.324219 L 121.75 95.324219 L 123.449219 92.9375 L 130.234375 92.9375 Z M 126.640625 88.460938 L 130.109375 83.589844 L 130.175781 88.460938 Z M 156.960938 93.699219 C 155.980469 94.644531 154.746094 95.289062 153.40625 95.554688 C 148.222656 96.585938 143.152344 95.675781 138.246094 94.339844 C 138.769531 92.96875 139.253906 91.597656 139.792969 90.226562 C 141.210938 90.742188 142.628906 91.082031 144.136719 91.398438 C 145.472656 91.679688 146.742188 91.859375 148.074219 91.851562 C 148.476562 91.851562 148.90625 91.867188 149.273438 91.683594 C 149.417969 91.617188 149.5625 91.550781 149.613281 91.378906 C 149.667969 91.25 149.660156 91.101562 149.585938 90.976562 C 149.433594 90.769531 149.210938 90.691406 148.996094 90.625 C 147.113281 90.066406 145.3125 89.867188 143.425781 89.320312 C 142.648438 89.105469 141.917969 88.742188 141.273438 88.25 C 140.859375 87.945312 140.585938 87.578125 140.355469 87.136719 C 139.492188 85.429688 140.128906 83.417969 141.371094 82.046875 C 142.089844 81.285156 142.9375 80.773438 143.886719 80.378906 C 145.734375 79.621094 147.695312 79.367188 149.671875 79.382812 C 153.039062 79.425781 156.402344 79.972656 159.617188 80.972656 C 159.121094 82.285156 158.613281 83.597656 158.132812 84.914062 C 155.730469 84.03125 153.171875 83.503906 150.605469 83.492188 C 150.144531 83.488281 149.628906 83.496094 149.257812 83.8125 C 149.066406 83.949219 149.023438 84.21875 149.164062 84.410156 C 149.367188 84.71875 149.734375 84.792969 150.078125 84.863281 C 152.796875 85.394531 155.804688 85.441406 157.769531 87.621094 C 158.160156 88.046875 158.421875 88.574219 158.515625 89.144531 C 158.726562 90.269531 158.429688 91.304688 158.019531 92.320312 C 157.996094 92.324219 157.976562 92.332031 157.960938 92.347656 C 157.710938 92.851562 157.371094 93.308594 156.960938 93.699219 Z M 156.960938 93.699219 "/>
<path style=" stroke:none;fill-rule:evenodd;fill:rgb(0%,0%,0%);fill-opacity:1;" d="M 42.988281 95.394531 C 40.054688 95.585938 37.007812 95.664062 34.277344 94.351562 C 32.398438 93.429688 31.117188 91.496094 31.15625 89.40625 C 31.175781 86.183594 32.59375 82.96875 35.476562 81.105469 C 36.441406 80.488281 37.375 80.070312 38.449219 79.796875 C 41.816406 78.929688 45.171875 78.890625 48.582031 79.324219 C 50.003906 79.507812 51.34375 79.792969 52.59375 80.605469 C 53.984375 81.554688 54.707031 83.039062 54.773438 84.644531 C 54.878906 87.011719 54.097656 89.296875 52.589844 91.21875 C 51.761719 92.289062 50.726562 92.984375 49.628906 93.660156 C 50.121094 94.367188 51.875 96.859375 51.875 96.859375 L 44.632812 96.859375 L 43.585938 95.332031 C 43.585938 95.332031 43.183594 95.378906 42.988281 95.394531 Z M 44.734375 90 C 45.65625 89.445312 46.335938 88.484375 46.5625 87.941406 C 46.769531 87.449219 46.921875 86.691406 46.835938 86.015625 C 46.6875 84.832031 45.757812 84.40625 44.78125 84.210938 C 43.546875 83.960938 41.972656 84.144531 40.671875 84.992188 C 39.058594 86.042969 38.089844 88.34375 39.058594 89.707031 C 39.53125 90.371094 40.632812 90.640625 41.539062 90.675781 C 42.652344 90.707031 43.734375 90.605469 44.734375 90 Z M 44.734375 90 "/>
<path style=" stroke:none;fill-rule:evenodd;fill:rgb(100%,100%,100%);fill-opacity:1;" d="M 2.417969 79.453125 C 2.59375 79.730469 2.792969 79.980469 3.011719 80.242188 C 3.347656 80.578125 3.648438 80.894531 4.042969 81.191406 C 4.597656 81.589844 5.671875 82.207031 5.964844 82.34375 C 6.160156 82.429688 6.34375 82.5 6.542969 82.578125 C 7.511719 82.917969 8.484375 83.195312 9.4375 83.570312 C 9.851562 83.730469 10.269531 83.90625 10.683594 84.105469 C 10.960938 84.246094 11.199219 84.40625 11.457031 84.582031 C 12.507812 85.433594 13.28125 86.464844 13.578125 87.8125 C 13.691406 88.332031 13.738281 88.804688 13.71875 89.300781 C 14.113281 89.796875 14.511719 90.269531 14.847656 90.828125 C 15.640625 92.15625 16.511719 93.246094 17.523438 94.375 C 17.9375 94.816406 18.414062 95.199219 18.9375 95.507812 C 19.027344 95.496094 19.011719 95.425781 19.011719 95.386719 C 18.945312 95.210938 18.859375 95.042969 18.753906 94.890625 C 18.535156 94.515625 18.316406 94.175781 18.019531 93.859375 C 17.1875 92.949219 16.273438 92.195312 15.640625 91.105469 C 15.046875 90.113281 14.589844 89.003906 14.886719 87.8125 C 14.957031 87.539062 15.085938 87.277344 15.304688 87.078125 C 15.582031 86.84375 15.898438 86.605469 16.296875 86.703125 C 16.355469 86.722656 16.433594 86.78125 16.394531 86.863281 C 16.273438 87.042969 16.15625 87.21875 15.976562 87.300781 C 15.761719 87.378906 15.605469 87.222656 15.386719 87.222656 C 15.308594 87.222656 15.308594 87.34375 15.347656 87.421875 C 15.546875 87.679688 15.820312 87.855469 16.136719 87.714844 C 16.472656 87.578125 16.652344 87.242188 16.96875 87.0625 C 17.085938 87.019531 17.214844 87.023438 17.324219 87.082031 C 17.515625 87.15625 17.902344 87.195312 18.070312 87.167969 C 18.734375 87.078125 19.167969 86.554688 19.519531 85.792969 C 19.578125 85.664062 19.675781 85.460938 19.699219 85.429688 C 19.765625 85.34375 19.886719 85.328125 19.988281 85.277344 C 20.078125 85.238281 20.136719 85.203125 20.21875 85.15625 C 20.320312 85.097656 20.449219 85.117188 20.535156 85.058594 C 20.726562 84.925781 20.882812 84.695312 20.902344 84.457031 C 20.882812 84.335938 20.339844 84.21875 20 84.089844 C 19.765625 84 19.445312 83.941406 19.355469 84.042969 C 19.328125 84.074219 19.195312 84.027344 19.117188 84.007812 C 18.996094 83.96875 18.804688 83.992188 18.683594 84.03125 C 18.515625 84.085938 18.304688 84.21875 18.257812 84.320312 C 18.390625 84.546875 18.902344 84.695312 18.914062 84.726562 C 18.960938 84.859375 18.730469 85.222656 18.675781 85.277344 C 18.5625 85.378906 18.414062 85.4375 18.261719 85.433594 C 18.101562 85.433594 17.957031 85.332031 17.839844 85.253906 C 17.007812 84.71875 16.414062 84.125 15.582031 83.570312 C 15.34375 83.402344 15.101562 83.25 14.847656 83.113281 C 14.515625 82.910156 14.164062 82.738281 13.800781 82.609375 C 12.402344 82.140625 10.445312 82.082031 8.640625 81.863281 C 7.984375 81.792969 7.335938 81.675781 6.699219 81.507812 C 5.726562 81.230469 4.875 80.851562 3.984375 80.378906 C 3.449219 80.078125 3.011719 79.703125 2.515625 79.328125 C 2.496094 79.308594 2.417969 79.273438 2.40625 79.363281 C 2.402344 79.421875 2.410156 79.445312 2.417969 79.453125 Z M 2.417969 79.453125 "/>
</g>
</svg>
