<svg width="115" height="80" viewBox="0 0 115 80" fill="none" xmlns="http://www.w3.org/2000/svg">
<path d="M23.4494 31.3038C23.4494 41.245 31.5083 49.3038 41.4494 49.3038L68.4494 49.3038C71.2108 49.3038 73.4494 47.0653 73.4494 44.3038L73.4494 10.3038C73.4494 4.78099 68.9722 0.303835 63.4494 0.303835L28.4494 0.303837C25.688 0.303837 23.4494 2.54241 23.4494 5.30384L23.4494 31.3038Z" fill="#FFF1DA"/>
<path d="M107.709 18.0979L59.1771 48.6501L30.4644 60.0755L15.8213 62.9862L14.2103 60.249L95.1054 10.3024C97.5163 8.8075 100.202 7.88995 102.891 7.64286C104.068 7.54096 105.231 7.58012 106.352 7.75892C107.346 7.90963 108.289 8.20034 109.153 8.62243C110.117 9.10067 111.951 9.15582 112.546 10.1086C112.548 10.1071 113.95 14.4815 107.709 18.0979V18.0979Z" fill="#E1E6E9"/>
<path d="M59.8205 44.6075L38.8252 78.0775C38.563 78.5476 38.7187 79.0741 39.1725 79.2533C39.4511 79.3634 39.792 79.3199 40.0784 79.1379L45.4224 75.7477C46.4503 75.0954 47.3604 74.2668 48.0966 73.3133L88.8129 25.4443L59.8205 44.6075Z" fill="#029BC5"/>
<path d="M6.8409 43.49C6.49068 43.3703 6.0739 43.4324 5.72207 43.6565L1.30458 46.4699C0.70266 46.8529 0.462809 47.5894 0.768671 48.115C0.826947 48.2149 0.902646 48.3029 0.993383 48.3753L13.3701 58.2877L26.3831 50.1596L6.8409 43.49Z" fill="#029BC5"/>
<path d="M17.5186 60.0746L10.8571 69.4041C10.7594 69.5382 10.7824 69.7065 10.9084 69.7798C10.9992 69.8327 11.1232 69.8232 11.224 69.7556L15.3522 67.1397C15.3843 67.1193 15.4133 67.0939 15.4374 67.0648L25.1709 55.2301L17.5186 60.0746Z" fill="#029BC5"/>
<path d="M88.9764 17.0692L93.9435 13.9323L98.5701 21.8013L93.6031 24.9383L88.9764 17.0692Z" fill="#D5D6DB"/>
<path d="M85.8509 20.1815C85.2524 20.5606 85.0131 21.2894 85.317 21.8091L85.8093 22.6511C86.1332 23.1576 86.8724 23.2466 87.4607 22.8499C88.0205 22.4721 88.246 21.7855 87.9762 21.2784L87.4839 20.4364C87.1803 19.9172 86.4494 19.8029 85.8509 20.1815V20.1815Z" fill="#3A556A"/>
<path d="M81.3865 22.9539C80.788 23.3331 80.5487 24.0619 80.8526 24.5816L81.3449 25.4236C81.6687 25.93 82.408 26.0191 82.9963 25.6224C83.5561 25.2446 83.7816 24.5579 83.5118 24.0509L83.0195 23.2089C82.7156 22.6898 81.9848 22.5755 81.3865 22.9539V22.9539Z" fill="#3A556A"/>
<path d="M76.9206 25.7273C76.3227 26.1069 76.0844 26.8348 76.388 27.3541L76.8803 28.196C77.2041 28.7025 77.9434 28.7915 78.5317 28.3948C79.0915 28.0171 79.317 27.3304 79.0472 26.8234L78.5549 25.9814C78.251 25.4617 77.5194 25.348 76.9206 25.7273V25.7273Z" fill="#3A556A"/>
<path d="M72.4563 28.4996C71.8585 28.8793 71.6201 29.6072 71.9237 30.1265L72.416 30.9685C72.7398 31.4749 73.4791 31.564 74.0674 31.1673C74.6272 30.7895 74.8527 30.1028 74.5829 29.5958L74.0906 28.7538C73.7864 28.2343 73.0549 28.1205 72.4563 28.4996V28.4996Z" fill="#3A556A"/>
<path d="M67.9924 31.2723C67.3942 31.6521 67.1557 32.3804 67.4595 32.8998L67.9521 33.7422C68.2558 34.2614 68.987 34.3752 69.5854 33.9962C70.1837 33.6172 70.4226 32.889 70.119 32.3697L69.6264 31.5274C69.3235 31.0077 68.5925 30.8932 67.9937 31.2715C67.9932 31.2718 67.993 31.272 67.9924 31.2723Z" fill="#3A556A"/>
<path d="M63.528 34.0448C62.9298 34.4246 62.6913 35.1528 62.9951 35.6723L63.4877 36.5146C63.7913 37.0339 64.5226 37.1476 65.121 36.7686C65.7193 36.3896 65.9582 35.6615 65.6546 35.1422L65.162 34.2999C64.859 33.7801 64.1281 33.6656 63.5293 34.044C63.5288 34.0443 63.5283 34.0446 63.528 34.0448Z" fill="#3A556A"/>
<path d="M59.0634 36.8173C58.4652 37.1971 58.2267 37.9253 58.5305 38.4448L59.023 39.2871C59.3275 39.8059 60.0591 39.9185 60.6568 39.539C61.2535 39.1601 61.4919 38.4335 61.1896 37.9149L60.6971 37.0726C60.3935 36.5529 59.6623 36.4386 59.0634 36.8173Z" fill="#3A556A"/>
<path d="M54.5988 39.5898C54.0006 39.9696 53.7621 40.6979 54.0659 41.2174L54.5584 42.0597C54.8629 42.5785 55.5945 42.6911 56.1922 42.3116C56.7889 41.9327 57.0273 41.2061 56.725 40.6874L56.2325 39.8451C55.9289 39.3254 55.1977 39.2111 54.5988 39.5898Z" fill="#3A556A"/>
<path d="M50.1345 42.3622C49.5363 42.742 49.2978 43.4702 49.6016 43.9897L50.0942 44.832C50.3986 45.3508 51.1302 45.4634 51.7279 45.0839C52.3246 44.7051 52.563 43.9784 52.2608 43.4598L51.7682 42.6175C51.4644 42.098 50.7331 41.9837 50.1345 42.3622Z" fill="#3A556A"/>
<path d="M45.6687 45.1355C45.0703 45.5145 44.8314 46.2426 45.1351 46.7619L45.1357 46.763L45.6283 47.6053C45.9328 48.1241 46.6644 48.2367 47.2621 47.8572C47.8588 47.4784 48.0972 46.7517 47.7949 46.2331L47.3023 45.3907C46.9988 44.8711 46.2676 44.7567 45.6687 45.1355Z" fill="#3A556A"/>
<path d="M41.2055 47.9072C40.6071 48.2861 40.3682 49.0143 40.6719 49.5336L40.6726 49.5346L41.1652 50.377C41.4696 50.8957 42.2012 51.0083 42.7989 50.6288C43.3957 50.25 43.6341 49.5234 43.3318 49.0047L42.8392 48.1624C42.5354 47.6429 41.8041 47.5286 41.2055 47.9072Z" fill="#3A556A"/>
<path d="M105.556 8.16116C104.401 7.97572 103.204 7.93613 101.991 8.04273C100.81 9.69381 100.055 11.5485 99.8017 13.422C99.7832 13.7983 100.087 14.0691 100.479 14.027C100.602 14.0137 100.723 13.9708 100.832 13.902L108.44 9.05774C107.551 8.61914 106.579 8.31729 105.556 8.16116Z" fill="#029BC5"/>
<path d="M72.0334 45.2453C70.675 45.5495 69.352 46.113 68.1465 46.9004C65.0057 48.9017 63.1784 51.7585 64.0653 53.2806C64.9523 54.8027 68.2173 54.4135 71.3581 52.4121C72.5799 51.6526 73.6653 50.6818 74.5474 49.5598C74.9568 49.0177 75.0303 48.3422 74.7351 47.8373L73.5829 45.8599C73.2897 45.3534 72.6817 45.1125 72.0334 45.2453Z" fill="#D5D6DB"/>
<path d="M64.1464 18.2521C63.1614 18.4729 62.202 18.8817 61.3277 19.4527C59.0509 20.9035 57.7251 22.9749 58.3677 24.0777C59.0103 25.1805 61.3788 24.898 63.6554 23.4473C64.5413 22.8963 65.3282 22.192 65.968 21.3784C66.2645 20.9854 66.3176 20.4961 66.1036 20.13L65.2693 18.6982C65.0571 18.3311 64.6164 18.156 64.1464 18.2521Z" fill="#D5D6DB"/>
<path d="M51.3323 19.3826C51.113 19.3581 50.8792 19.4165 50.6765 19.5461L45.3283 22.9543C44.8809 23.2385 44.7019 23.7858 44.9288 24.177C44.9807 24.2666 45.0518 24.3432 45.138 24.4022L58.3196 33.4871L76.1531 22.1224L51.3323 19.3826Z" fill="#029BC5"/>
</svg>
